<mxfile host="app.diagrams.net" modified="2021-09-17T16:41:16.015Z" agent="5.0 (Windows NT 10.0; Win64; x64) AppleWebKit/537.36 (KHTML, like Gecko) Chrome/93.0.4577.82 Safari/537.36" etag="zK6Fi4XsGPpvmu4F4_Fg" version="15.2.9" type="github">
  <diagram id="fpayz0l904V1s0RFpCxZ" name="Page-1">
    <mxGraphModel dx="1422" dy="794" grid="1" gridSize="10" guides="1" tooltips="1" connect="1" arrows="1" fold="1" page="1" pageScale="1" pageWidth="827" pageHeight="1169" math="0" shadow="0">
      <root>
        <mxCell id="0" />
        <mxCell id="1" parent="0" />
        <mxCell id="lnXr6-OrPL4FdntM5OE_-1" value="首页：图片+日期+一句话" style="rounded=0;whiteSpace=wrap;html=1;" vertex="1" parent="1">
          <mxGeometry x="280" y="200" width="160" height="280" as="geometry" />
        </mxCell>
        <mxCell id="lnXr6-OrPL4FdntM5OE_-2" value="左滑：每日文章+图" style="rounded=0;whiteSpace=wrap;html=1;" vertex="1" parent="1">
          <mxGeometry x="80" y="200" width="160" height="280" as="geometry" />
        </mxCell>
        <mxCell id="lnXr6-OrPL4FdntM5OE_-3" value="右划：历史上的今天" style="rounded=0;whiteSpace=wrap;html=1;" vertex="1" parent="1">
          <mxGeometry x="520" y="200" width="160" height="280" as="geometry" />
        </mxCell>
        <mxCell id="lnXr6-OrPL4FdntM5OE_-4" value="提供接口：one+artical+history+img&lt;br&gt;定时任务：根据文章生成图片&lt;br&gt;文章图片关联表&lt;br&gt;文章表&lt;br&gt;图片表&lt;br&gt;one表&lt;br&gt;history表" style="rounded=0;whiteSpace=wrap;html=1;" vertex="1" parent="1">
          <mxGeometry x="80" y="680" width="400" height="160" as="geometry" />
        </mxCell>
        <mxCell id="lnXr6-OrPL4FdntM5OE_-5" value="phyton:爬取history&lt;br&gt;爬取文章&lt;br&gt;爬取图片" style="rounded=0;whiteSpace=wrap;html=1;" vertex="1" parent="1">
          <mxGeometry x="80" y="920" width="400" height="120" as="geometry" />
        </mxCell>
      </root>
    </mxGraphModel>
  </diagram>
</mxfile>
